<svg width="24" height="24" viewBox="0 0 24 24" fill="none" xmlns="http://www.w3.org/2000/svg">
  <path d="M10.5 13H8V15.5H5.5V13H3V10.5H5.5V8H8V10.5H10.5V13ZM12 2C6.48 2 2 6.48 2 12C2 17.52 6.48 22 12 22C17.52 22 22 17.52 22 12C22 6.48 17.52 2 12 2ZM12 20C7.59 20 4 16.41 4 12C4 7.59 7.59 4 12 4C16.41 4 20 7.59 20 12C20 16.41 16.41 20 12 20ZM16.5 11C17.33 11 18 10.33 18 9.5C18 8.67 17.33 8 16.5 8C15.67 8 15 8.67 15 9.5C15 10.33 15.67 11 16.5 11ZM15 16.5C15 15.67 14.33 15 13.5 15C12.67 15 12 15.67 12 16.5C12 17.33 12.67 18 13.5 18C14.33 18 15 17.33 15 16.5Z" fill="#C41E3A"/>
</svg>