<svg width="200" height="50" viewBox="0 0 200 50" fill="none" xmlns="http://www.w3.org/2000/svg">
  <path d="M20 10H40C45.523 10 50 14.477 50 20V30C50 35.523 45.523 40 40 40H20C14.477 40 10 35.523 10 30V20C10 14.477 14.477 10 20 10Z" fill="#C41E3A"/>
  <path d="M65 15H70.5L75 35H70L69 30H66.5L65.5 35H60.5L65 15ZM68.5 26L67.5 20L66.5 26H68.5Z" fill="#C41E3A"/>
  <path d="M80 15H85V31H90V35H80V15Z" fill="#C41E3A"/>
  <path d="M95 15H100V35H95V15Z" fill="#C41E3A"/>
  <path d="M110 15H115L120 25V15H125V35H120L115 25V35H110V15Z" fill="#C41E3A"/>
  <path d="M135 15H140.5L145 35H140L139 30H136.5L135.5 35H130.5L135 15ZM138.5 26L137.5 20L136.5 26H138.5Z" fill="#C41E3A"/>
  <path d="M150 15H155V31H160V35H150V15Z" fill="#C41E3A"/>
  <path d="M165 15H175V19H170V23H175V27H170V31H175V35H165V15Z" fill="#C41E3A"/>
  <path d="M180 15H185L190 25V15H195V35H190L185 25V35H180V15Z" fill="#C41E3A"/>
  <text x="30" y="30" font-family="Arial" font-size="16" font-weight="bold" fill="white">R&L</text>
</svg>